<?xml version="1.0" standalone="no"?><!DOCTYPE svg PUBLIC "-//W3C//DTD SVG 1.1//EN" "http://www.w3.org/Graphics/SVG/1.1/DTD/svg11.dtd"><svg t="1697180496914" class="icon" viewBox="0 0 1024 1024" version="1.1" xmlns="http://www.w3.org/2000/svg" p-id="8208" xmlns:xlink="http://www.w3.org/1999/xlink" width="200" height="200"><path d="M756.768 967.328l-199.328-199.296h-91.136l-200.896 200.96a32.096 32.096 0 0 0 0 45.504c12.608 12.608 32.96 12.608 45.536 0L480 845.792v114.24c0 17.824 14.112 33.312 31.904 33.312S544 978.976 544 961.152v-115.424l167.264 167.136a32.192 32.192 0 1 0 45.504-45.536zM544 64V32a32 32 0 1 0-64 0v32h64z" fill="#434854" p-id="8209"></path><path d="M544 64V32a32 32 0 1 0-64 0v32h64z" fill="" p-id="8210"></path><path d="M32 192.032h960v576H32z" fill="#EAEAEA" p-id="8211"></path><path d="M32 192.032h960v32H32z" fill="" p-id="8212"></path><path d="M589.312 800.224l-32.224-32.192h-91.104l-32.16 32.192z" fill="" p-id="8213"></path><path d="M1024 96.032a32 32 0 0 0-32-32H32a32 32 0 0 0-32 32v96h1024v-96z" fill="#434854" p-id="8214"></path><path d="M448 417.632h128v256h-128z" fill="#EACA44" p-id="8215"></path><path d="M288 545.632h128v128H288z" fill="#EF4D4D" p-id="8216"></path><path d="M608 289.632h128v384h-128z" fill="#3AAD73" p-id="8217"></path></svg>